# Alias OBJ Model File
# Exported from SketchUp, (c) 2000-2012 Trimble Navigation Limited
# File units = meters

g Mesh1 sides2_1_1 Group1 Model

usemtl FrontColor
v -0.74 0.035 1.99146e-017
vt -1.37795 0
vn -1 -2.90355e-015 -1.65209e-030
v -0.74 -1.71454e-015 -1.0532e-030
vt 3.55271e-015 0
v -0.74 -1.85679e-015 0.25
vt 3.55271e-015 9.84252
v -0.74 0.035 0.25
vt -1.37795 9.84252
f 1/1/1 2/2/1 3/3/1 4/4/1 

vt -3.55271e-015 -1.42109e-014
vn 0 5.68989e-016 -1
vt 1.37795 -3.55271e-014
v 0.74 0.035 1.99146e-017
vt 1.37795 58.2677
v 0.74 2.0155e-015 1.06915e-030
vt -7.10543e-015 58.2677
f 2/5/2 1/6/2 5/7/2 6/8/2 

vt 0 58.2677
vn -4.63549e-015 1 5.68989e-016
vt 0 -3.26965e-014
vt 9.84252 -3.26965e-014
v 0.74 0.035 0.25
vt 9.84252 58.2677
f 5/9/3 1/10/3 4/11/3 7/12/3 

vt -1.37795 -3.55271e-014
vn 0 -5.68989e-016 1
vt 3.55271e-015 -1.42109e-014
v 0.74 1.87325e-015 0.25
vt 7.10543e-015 58.2677
vt -1.37795 58.2677
f 4/13/4 3/14/4 8/15/4 7/16/4 

vt 0 -1.42109e-014
vn 2.58127e-015 -1 -5.68989e-016
vt -9.84252 58.2677
vt -9.84252 -1.42109e-014
f 2/17/5 6/9/5 8/18/5 3/19/5 

vt -7.10543e-015 0
vn 1 2.58127e-015 1.46871e-030
vt 1.37795 0
vt 1.37795 9.84252
vt -7.10543e-015 9.84252
f 6/20/6 5/21/6 7/22/6 8/23/6 

g Mesh2 sides2_1 Group1 Model

v 0.775 0.305 1.73542e-016
vn -3.22282e-016 1 5.68989e-016
v 0.74 0.305 1.73542e-016
vt 8.24737e-016 0
v 0.74 0.305 0.25
vt 8.24737e-016 9.84252
v 0.775 0.305 0.25
f 9/1/7 10/24/7 11/25/7 12/4/7 

vt 0 2.55906
vt 1.37795 2.55906
v 0.775 -0.31 -1.76387e-016
vt 1.37795 26.7717
v 0.74 -0.31 -1.76387e-016
vt 0 26.7717
f 10/26/2 9/27/2 13/28/2 14/29/2 

vn 1 2.05422e-015 1.16883e-030
vt 9.84252 2.55906
v 0.775 -0.31 0.25
vt 9.84252 26.7717
f 13/29/8 9/26/8 12/30/8 15/31/8 

vt -1.37795 2.55906
v 0.74 -0.31 0.25
vt -1.37795 26.7717
f 12/32/4 11/26/4 16/29/4 15/33/4 

vn -1 -0 0
vt -9.84252 26.7717
vt -9.84252 2.55906
f 10/26/9 14/29/9 16/34/9 11/35/9 

vt 0 0
vn 0 -1 -5.68989e-016
vt 0 9.84252
f 14/36/10 13/21/10 15/22/10 16/37/10 

g Mesh3 sides1 Group1 Model

v 0.775 -0.31 -1.76387e-016
vn 1 0 0
v 0.775 -0.31 0.25
vt 9.84252 0
v 0.775 -0.375 0.25
v 0.775 -0.375 -2.13371e-016
f 17/36/11 18/38/11 19/30/11 20/26/11 

vt -61.0236 9.84252
vn 0 1 5.68989e-016
vt -61.0236 0
v -0.775 -0.31 -1.76387e-016
v -0.775 -0.31 0.25
f 18/39/12 17/40/12 21/36/12 22/37/12 

vt 61.0236 0
vt 61.0236 2.55906
v -0.775 -0.375 -2.13371e-016
f 21/36/2 17/41/2 20/42/2 23/26/2 

vt 61.0236 9.84252
v -0.775 -0.375 0.25
f 20/41/10 19/43/10 24/37/10 23/36/10 

vt -61.0236 2.55906
f 18/40/4 22/36/4 24/26/4 19/44/4 

vt -9.84252 0
f 22/45/9 21/36/9 23/26/9 24/35/9 

g Mesh4 sides2_2 Group1 Model

v -0.74 0.305 1.73542e-016
v -0.775 0.305 1.73542e-016
v -0.775 0.305 0.25
v -0.74 0.305 0.25
f 25/1/7 26/24/7 27/25/7 28/4/7 

v -0.74 -0.31 -1.76387e-016
v -0.775 -0.31 -1.76387e-016
f 26/26/2 25/27/2 29/28/2 30/29/2 

v -0.74 -0.31 0.25
f 29/29/8 25/26/8 28/30/8 31/31/8 

v -0.775 -0.31 0.25
f 28/32/4 27/26/4 32/29/4 31/33/4 

f 26/26/9 30/29/9 32/34/9 27/35/9 

f 30/36/10 29/21/10 31/22/10 32/37/10 

g Mesh5 sides2_3_1 Group1 Model

v 0.25 -0.31 -1.76387e-016
v 0.285 -0.31 -1.76387e-016
v 0.285 -0.31 0.25
v 0.25 -0.31 0.25
f 33/36/10 34/21/10 35/22/10 36/37/10 

v 0.25 0.305 1.73542e-016
v 0.285 0.305 1.73542e-016
vt 1.37795 -4.44089e-016
vt 1.37795 24.2126
vt 0 24.2126
f 37/36/2 38/46/2 34/47/2 33/48/2 

v 0.25 0.305 0.25
v 0.285 0.305 0.25
f 38/1/7 37/36/7 39/37/7 40/4/7 

vt -9.84252 24.2126
f 37/36/9 33/48/9 36/49/9 39/45/9 

vt -1.37795 -4.44089e-016
vt -1.37795 24.2126
f 40/50/4 39/36/4 36/48/4 35/51/4 

vn 1 1.76076e-015 1.00185e-030
vt 0 1.98215e-015
vt 9.84252 1.98215e-015
vt 9.84252 24.2126
f 34/48/13 38/52/13 40/53/13 35/54/13 

g Mesh6 sides2_3_2 Group1 Model

v -0.355 -0.31 -1.76387e-016
v -0.32 -0.31 -1.76387e-016
v -0.32 -0.31 0.25
v -0.355 -0.31 0.25
f 41/36/10 42/21/10 43/22/10 44/37/10 

v -0.355 0.305 1.73542e-016
v -0.32 0.305 1.73542e-016
f 45/36/2 46/46/2 42/47/2 41/48/2 

v -0.355 0.305 0.25
v -0.32 0.305 0.25
f 46/1/7 45/36/7 47/37/7 48/4/7 

f 45/36/9 41/48/9 44/49/9 47/45/9 

f 48/50/4 47/36/4 44/48/4 43/51/4 

f 42/48/13 46/52/13 48/53/13 43/54/13 

g Mesh7 sides2 Group1 Model

v 0.775 0.37 2.10526e-016
v 0.775 0.37 0.25
f 49/36/11 50/38/11 12/30/11 9/26/11 

v -0.775 0.37 2.10526e-016
v -0.775 0.37 0.25
f 50/39/12 49/40/12 51/36/12 52/37/12 

f 51/36/2 49/41/2 9/42/2 26/26/2 

f 9/41/10 12/43/10 27/37/10 26/36/10 

f 50/40/4 52/36/4 27/26/4 12/44/4 

f 52/45/9 51/36/9 26/26/9 27/35/9 

